<?xml version="1.0" encoding="UTF-8"?><svg id="Layer_2" xmlns="http://www.w3.org/2000/svg" viewBox="0 0 696.6 696.6"><defs><style>.cls-1{fill:#e6fffc;}.cls-1,.cls-2,.cls-3,.cls-4{stroke:#1c2c33;stroke-miterlimit:10;stroke-width:27.01px;}.cls-2{fill:#005d52;}.cls-3{fill:#46ded9;}.cls-4{fill:#4fa79d;}.cls-5{fill:#fff;stroke-width:0px;}</style></defs><g id="Layer_1-2"><circle class="cls-5" cx="348.3" cy="348.3" r="348.3"/><path class="cls-1" d="m266.5,284.22c0,7.15.37,14.21,1.06,21.18.08.77.88,1.23,1.58.92,26.12-11.37,54.93-17.73,85.23-17.73,27.78,0,54.3,5.35,78.65,14.99.71.28,1.49-.2,1.55-.97.35-4.91.57-9.85.57-14.85,0-67.08-30.9-126.92-79.23-166.12-4.25-3.44-10.46-3.36-14.62.2-45.77,39.21-74.8,97.39-74.8,162.38Z"/><path class="cls-4" d="m351.91,455.18c-45.77-34.43-77.26-86.79-84.03-146.66-.09-.77-.9-1.25-1.61-.93-66.79,30.25-115.23,93.81-124.16,169.49-.64,5.43,2.81,10.45,7.96,12.28,22.29,7.89,46.26,12.22,71.26,12.22,49.2,0,94.48-16.66,130.6-44.59.6-.46.58-1.36-.02-1.81Z"/><path class="cls-3" d="m434.32,305.74c-5.03,60.46-35.19,113.74-80.04,149.41-.59.47-.58,1.37.03,1.82,35.34,25.82,78.88,41.07,125.99,41.07,27.53,0,53.83-5.25,78-14.73,5.07-1.99,8.33-7.1,7.54-12.49-11.16-75.35-61.65-137.86-129.93-166.06-.72-.3-1.52.2-1.59.98Z"/><path class="cls-2" d="m267.8,307.81c6.63,60.37,38.37,113.16,84.57,147.72.43.32,1.03.31,1.45-.02,45.27-35.81,75.68-89.53,80.55-150.48.04-.51-.26-1.01-.74-1.2-24.52-9.8-51.26-15.24-79.28-15.24-30.55,0-59.58,6.46-85.86,18-.47.21-.76.71-.7,1.22Z"/></g></svg>