<?xml version="1.0" encoding="UTF-8"?><svg id="Layer_2" xmlns="http://www.w3.org/2000/svg" viewBox="0 0 1800 442.03"><defs><style>.cls-1{opacity:0;}.cls-1,.cls-2{stroke-width:0px;}.cls-3{fill:#e6fffc;}.cls-3,.cls-4,.cls-5,.cls-6{stroke:#1c2c33;stroke-miterlimit:10;stroke-width:17.11px;}.cls-4{fill:#005d52;}.cls-5{fill:#4fa79d;}.cls-6{fill:#46ded9;}.cls-2{fill:#1c2c33;}</style></defs><g id="Layer_1-2"><rect class="cls-1" width="1800" height="442.03"/><path class="cls-2" d="m496.68,119.03c0,.72-.54,1.31-1.26,1.39-13.17,1.44-25.93,7.42-25.93,28.83v145.67c0,21.41,12.77,27.39,25.93,28.83.71.08,1.26.67,1.26,1.39v.02c0,.77-.63,1.4-1.4,1.4h-104.28c-.77,0-1.4-.63-1.4-1.4v-.02c0-.72.55-1.31,1.26-1.39,13.46-1.43,25.93-7.41,25.93-28.83v-145.67c0-21.42-12.47-27.4-25.93-28.83-.72-.08-1.26-.67-1.26-1.39v-.02c0-.77.63-1.4,1.4-1.4h104.28c.77,0,1.4.63,1.4,1.4v.02Z"/><path class="cls-2" d="m593.99,326.56h-83.37c-.87,0-1.57-.7-1.57-1.57v-.06c0-.79.58-1.48,1.36-1.58,10.43-1.37,20.74-7.48,20.74-26.7v-81.58c0-20.24-10.66-26.06-23.25-25.89-.87.01-1.57-.7-1.57-1.57v-.26c0-.7.46-1.32,1.14-1.51l66.01-18.91c.32-.09.67-.08.98.04l1.22.46c.61.23,1.02.82,1.02,1.47v21.84c0,1.4,1.69,2.1,2.68,1.1,14.13-14.34,33.64-25.73,53.75-25.73,24.82,0,40.79,14.62,40.79,42.83v87.7c0,19.24,10.01,25.34,21.03,26.71.8.1,1.4.76,1.4,1.56v.08c0,.87-.7,1.57-1.57,1.57h-83.71c-.77,0-1.4-.63-1.4-1.4v-.03c0-.71.52-1.33,1.22-1.42,10.79-1.39,16.8-8.4,16.8-27.74v-77.84c0-22.1-7.48-31.27-21.08-31.27-9.68,0-20.35,5.9-28.78,14.49-.29.3-.45.7-.45,1.11v93.51c0,19.29,6.6,26.31,16.78,27.73.7.1,1.24.68,1.24,1.39v.07c0,.77-.63,1.4-1.4,1.4Z"/><path class="cls-2" d="m772.86,178.69c-.87,0-1.57.7-1.57,1.57v102.11c0,15.64,6.8,22.78,17,22.78,7.47,0,14.01-3.73,20.51-12.66.51-.7,1.47-.88,2.18-.38l.94.66c.67.47.87,1.38.46,2.09-14.2,24.33-33.25,36.82-51.97,36.82-21.76,0-35.35-17-35.35-39.09v-111.97c0-.87-.7-1.57-1.57-1.57h-18.62c-.87,0-1.57-.7-1.57-1.57v-1c0-.69.46-1.29,1.12-1.49,26.18-7.89,51.81-36.56,61.78-69.94.2-.66.8-1.12,1.49-1.12h2.02c.87,0,1.57.7,1.57,1.57v65.19c0,.87.7,1.57,1.57,1.57h34.59c.87,0,1.57.7,1.57,1.57v3.32c0,.87-.7,1.57-1.57,1.57h-34.59Z"/><path class="cls-2" d="m896.39,332c-41.81,0-74.11-34.33-74.11-79.88,0-50.31,37.39-86,76.49-86,34.89,0,63.49,24.5,65.54,65.66.04.89-.68,1.65-1.58,1.65h-96.68c-.88,0-1.6.73-1.58,1.62,1.21,40.18,22.46,65.01,52.65,65.01,17.26,0,32.25-7.78,41.81-23.33.4-.65,1.21-.94,1.92-.65l.83.33c.75.3,1.16,1.13.93,1.91-10.44,35.14-35.35,53.69-66.23,53.69Zm-30.29-105.38h52.83c.88,0,1.59-.72,1.57-1.6-.58-38.24-10.03-52.79-24.12-52.79-16.38,0-29.8,19.73-31.86,52.72-.06.9.67,1.67,1.57,1.67Z"/><path class="cls-2" d="m1069.72,326.56h-86.77c-.87,0-1.57-.7-1.57-1.57v-.08c0-.8.61-1.46,1.4-1.56,10.73-1.35,21.03-7.14,21.03-26.36v-81.92c0-19.93-10.37-26.05-23.25-25.88-.87.01-1.57-.7-1.57-1.57v-.26c0-.7.46-1.32,1.14-1.51l66.01-18.91c.32-.09.67-.08.98.04l1.22.46c.61.23,1.02.82,1.02,1.47v31.46c0,1.66,2.23,2.17,2.97.69,11.81-23.77,29.96-36.98,44.96-36.98,20.97,0,28.74,22.01,16.84,40.16-.16.24-.39.45-.65.57-26.88,13.22-31.67-9.46-44.41-9.46-8.11,0-14.2,8.73-18.95,22.86-.06.16-.08.34-.08.51v77.24c0,19.33,8.84,26.34,19.83,27.74.71.09,1.25.67,1.25,1.39v.06c0,.77-.63,1.4-1.4,1.4Z"/><path class="cls-2" d="m1215.93,303.44c0-14.28-12.92-21.76-28.55-29.23-24.47-11.9-56.09-23.12-56.09-57.79,0-26.85,20.74-50.31,61.19-50.31,19.21,0,37.77,4.52,51.29,12.3.63.36.92,1.11.71,1.8l-10.84,36.99c-.21.73-.92,1.2-1.68,1.12l-.64-.07c-.66-.07-1.2-.57-1.35-1.22-6.36-28.21-24.81-44.11-42.93-44.11-16.66,0-26.51,8.84-26.51,21.08,0,17.34,18.7,25.5,39.09,34.67,23.79,11.22,49.63,23.46,49.63,53.37s-23.12,49.97-64.25,49.97c-21.14,0-44.52-5.46-57.37-12.31-.65-.35-.95-1.11-.75-1.82l12.21-42.08c.21-.72.9-1.19,1.65-1.13l1.22.11c.72.07,1.3.63,1.4,1.35,4.38,30.89,22.22,50.09,44.7,50.09,17.68,0,27.87-9.52,27.87-22.77Z"/><path class="cls-2" d="m1343.41,332c-41.81,0-74.11-34.33-74.11-79.88,0-50.31,37.39-86,76.49-86,34.89,0,63.49,24.5,65.54,65.66.04.89-.68,1.65-1.58,1.65h-96.68c-.88,0-1.6.73-1.58,1.62,1.21,40.18,22.46,65.01,52.65,65.01,17.26,0,32.25-7.78,41.81-23.33.4-.65,1.21-.94,1.92-.65l.83.33c.75.3,1.16,1.13.93,1.91-10.44,35.14-35.35,53.69-66.23,53.69Zm-30.29-105.38h52.83c.88,0,1.59-.72,1.57-1.6-.58-38.24-10.03-52.79-24.12-52.79-16.38,0-29.8,19.73-31.86,52.72-.06.9.67,1.67,1.57,1.67Z"/><path class="cls-2" d="m1504.2,332c-41.81,0-74.11-34.33-74.11-79.88,0-50.31,37.39-86,76.48-86,34.89,0,63.49,24.5,65.54,65.66.04.89-.68,1.65-1.58,1.65h-96.68c-.88,0-1.6.73-1.58,1.62,1.21,40.18,22.46,65.01,52.65,65.01,17.26,0,32.25-7.78,41.8-23.33.4-.65,1.21-.94,1.92-.65l.84.33c.75.3,1.16,1.13.93,1.91-10.44,35.14-35.36,53.69-66.23,53.69Zm-30.29-105.38h52.83c.88,0,1.59-.72,1.57-1.6-.58-38.24-10.03-52.79-24.12-52.79-16.38,0-29.8,19.73-31.86,52.72-.06.9.67,1.67,1.57,1.67Z"/><path class="cls-2" d="m1695.92,305.05c0-1.54-1.98-2.16-2.85-.89-10.73,15.61-27.13,27.84-46.1,27.84-30.93,0-56.09-29.57-56.09-73.09,0-53.37,38.75-92.8,80.22-92.8,7.87,0,15.2,1.62,21.51,4.85,1.05.54,2.28-.21,2.28-1.39v-51.39c0-20.21-10.32-25.73-22.56-25.55-.87.01-1.57-.7-1.57-1.57v-.58c0-.71.47-1.32,1.15-1.51l66-18.24c.32-.09.66-.07.97.04l1.22.46c.61.23,1.02.82,1.02,1.47v219.19c0,20.89,8.47,27.68,20.88,27.58.86,0,1.56.71,1.56,1.57v.41c0,.79-.58,1.45-1.37,1.56l-63.17,8.27c-.25.03-.51,0-.75-.09l-1.33-.5c-.61-.23-1.02-.82-1.02-1.47v-24.16Zm-1.02-11.72v-95.76c0-.12-.01-.24-.04-.36-4.11-18.56-14.61-26-24.78-26-18.02,0-34.67,25.16-34.67,69.35,0,41.47,15.64,63.57,37.39,63.57,8.96,0,16.3-3.56,21.71-9.74.25-.29.39-.66.39-1.05Z"/><path class="cls-3" d="m115.3,207.29c0,4.53.23,9,.67,13.42.05.49.55.78,1,.58,16.55-7.21,34.8-11.23,54-11.23,17.6,0,34.41,3.39,49.83,9.5.45.18.95-.13.98-.61.22-3.11.36-6.24.36-9.41,0-42.5-19.58-80.42-50.2-105.26-2.69-2.18-6.63-2.13-9.26.12-29,24.84-47.39,61.71-47.39,102.89Z"/><path class="cls-5" d="m169.42,315.61c-29-21.81-48.95-54.99-53.24-92.93-.06-.49-.57-.79-1.02-.59-42.32,19.17-73.01,59.44-78.67,107.39-.41,3.44,1.78,6.62,5.05,7.78,14.12,5,29.31,7.74,45.15,7.74,31.17,0,59.86-10.56,82.75-28.25.38-.29.37-.86-.01-1.15Z"/><path class="cls-6" d="m221.64,220.92c-3.19,38.31-22.3,72.07-50.71,94.67-.37.3-.37.87.02,1.15,22.39,16.36,49.98,26.02,79.83,26.02,17.45,0,34.11-3.32,49.42-9.33,3.21-1.26,5.28-4.5,4.77-7.91-7.07-47.75-39.06-87.35-82.32-105.22-.46-.19-.97.13-1.01.62Z"/><path class="cls-4" d="m116.12,222.23c4.2,38.25,24.31,71.7,53.59,93.6.27.2.65.2.92-.01,28.69-22.69,47.95-56.73,51.04-95.35.03-.33-.17-.64-.47-.76-15.54-6.21-32.48-9.66-50.23-9.66-19.36,0-37.75,4.09-54.4,11.41-.3.13-.48.45-.44.77Z"/></g></svg>